PathFileType	4	(X/Y/Z)	C:\Users\WrightLab\Desktop\Jo\P1_boxCal31.trc
DataRate	CameraRate	NumFrames	NumMarkers	Units	OrigDataRate	OrigDataStartFrame	OrigNumFrames
100.00	100.00	       14	19	mm	100.00	371	       740
Frame#	Time	Headset_Front			Headset_Back			Headset_Left			Headset_Right			Left_Shoulder			Right_Shoulder			Sternum			C7			Left Elbow			Right Elbow			Left Wrist			Right Wrist			Left ASIS			Right ASIS			S2			Left Knee			Right Knee			Left Ankle			Right Ankle			
		X1	Y1	Z1	X2	Y2	Z2	X3	Y3	Z3	X4	Y4	Z4	X5	Y5	Z5	X6	Y6	Z6	X7	Y7	Z7	X8	Y8	Z8	X9	Y9	Z9	X10	Y10	Z10	X11	Y11	Z11	X12	Y12	Z12	X13	Y13	Z13	X14	Y14	Z14	X15	Y15	Z15	X16	Y16	Z16	X17	Y17	Z17	X18	Y18	Z18	X19	Y19	Z19	

371	3.700	-399.22372	1342.87964	263.30441	-564.07922	1497.45276	57.98921	-415.88882	1416.63586	69.86775	-539.45660	1398.62317	258.37006	-421.41415	1242.35767	-47.79242	-689.98279	1250.34790	222.47499	-482.55188	1144.60828	196.46075	-628.42200	1259.03491	-0.52405	-436.31357	926.29492	-146.87149	-784.06158	995.22296	296.14615	-344.94931	729.83472	-138.98396	-749.35223	794.61652	442.92072	-420.92950	859.25775	150.83255	-593.79144	861.66882	250.82393	-664.15271	874.56281	-71.72718	-364.05612	464.77597	134.10910	-757.42273	432.55374	121.32200	-305.14215	122.46962	252.77977	-356.91284	120.14459	359.38177	
372	3.710	-392.66840	1342.32715	271.05859	-556.65155	1496.31714	65.78909	-408.02826	1415.69336	78.08908	-532.80029	1397.49182	266.13565	-413.78833	1240.47107	-39.86292	-683.17590	1249.92212	229.54330	-475.21158	1142.55396	202.08380	-620.58484	1257.49194	8.07589	-429.37259	924.81799	-138.97401	-776.54041	993.96448	302.78235	-339.46225	728.06067	-133.07922	-739.10315	793.75110	451.20496	-414.69525	858.09827	161.29427	-588.40552	861.22791	260.98242	-657.14081	873.04993	-62.27827	-355.75732	463.45630	141.25343	-752.09283	432.16757	127.74458	-292.58243	123.62976	260.83075	-336.71109	132.95764	384.84488	
373	3.720	-385.47318	1341.12158	279.14273	-548.98621	1495.65186	72.29053	-400.90491	1414.70142	85.66504	-525.32397	1396.75500	273.24921	-405.48035	1238.84119	-32.39671	-675.55792	1249.19080	236.92180	-468.25455	1142.09741	212.42627	-613.09381	1256.49438	14.88389	-422.57864	922.99493	-130.20016	-769.54077	992.85681	308.84412	-333.41580	726.74463	-127.98380	-727.51312	792.84436	458.06219	-408.71799	857.64832	171.18394	-582.09076	861.19189	269.45663	-649.17786	871.18939	-52.93836	-348.01263	462.63669	149.65562	-747.28119	432.44199	133.42134	-281.20108	123.90701	267.54636	-334.38495	119.21190	373.71890	
374	3.730	-378.71347	1340.89856	287.44052				-392.66934	1414.61792	93.39481	-518.99017	1395.93896	280.84213	-397.30899	1237.45789	-24.09536	-668.16095	1249.05640	244.23399	-460.44135	1141.49744	219.76540	-604.70343	1255.31506	22.81828	-415.29514	921.67041	-121.92712	-762.58002	991.99347	315.07263	-327.24084	725.17242	-121.55412	-717.86029	793.28931	464.85999	-401.70862	857.50342	181.02249	-574.97656	861.38397	280.16510	-641.62531	871.12238	-44.86810	-339.60446	461.84525	158.09674	-742.15747	433.57660	138.96086	-269.69116	123.78938	272.92087	-324.45676	115.06772	368.65283	
375	3.740	-371.19763	1340.55127	294.95224	-533.34674	1493.88342	87.01266	-384.28265	1414.06689	100.53579	-511.36206	1395.56799	287.90057	-389.11621	1236.58545	-16.55821	-660.57507	1248.86047	251.37631				-596.50964	1254.77588	29.42890	-407.42471	919.85468	-112.83885	-755.93109	991.64825	320.93616	-320.53915	724.20190	-115.72275	-707.89746	792.32849	471.46918	-394.20166	856.88867	191.18124	-567.61200	861.07690	289.83380	-633.22260	869.58160	-34.98474	-330.50681	460.38467	166.82266	-736.02618	432.70657	146.96571	-259.88675	122.10455	276.01880	-305.78162	136.32330	416.81149	
376	3.750	-364.19495	1340.31836	302.81235	-525.25671	1493.41516	93.87399	-376.07416	1413.43372	108.47592	-504.52155	1395.74658	295.10226	-380.58212	1235.02942	-9.18977	-652.51288	1248.49023	258.08078	-445.03629	1142.23914	233.61905	-587.84314	1253.51477	36.90105	-399.66861	918.46454	-104.61395	-749.27460	991.46570	326.46786	-314.08856	723.19458	-108.78439	-697.85632	791.53497	477.80286	-386.92267	856.73956	200.81499	-559.67383	862.31299	299.13806	-625.42743	868.20428	-25.09723	-321.73917	459.81158	175.04927	-729.55994	433.01370	154.45808	-252.43704	119.89288	277.31207	-285.86154	114.09641	390.04755	
377	3.760	-357.02731	1340.20032	310.55676	-517.09436	1492.88599	100.06961	-368.44763	1413.25098	116.67445	-497.08072	1394.98401	302.20856	-371.90384	1234.57666	-1.91920	-644.94946	1248.49072	264.96594	-436.18570	1141.39661	240.05827	-579.88715	1252.42383	44.22183	-391.87900	917.64825	-95.78295	-740.86237	990.21252	331.91037	-307.21143	722.29742	-101.85718	-688.29633	791.63934	483.52008	-378.53119	856.39459	210.76723	-551.01483	862.30005	309.07797	-615.93860	867.70660	-15.62013	-312.28082	459.27948	183.69672	-721.04199	432.15613	164.52122	-246.06371	115.79305	277.11237	-279.32813	106.33345	381.48651	
378	3.770	-349.45218	1341.43530	318.84479				-359.36264	1413.27869	123.99374	-490.11389	1395.28650	309.46597	-362.71091	1233.56409	5.51703	-637.04877	1248.51257	272.26276	-426.99332	1142.58508	252.89713	-571.09369	1251.99329	51.06983	-383.59467	915.80359	-86.57660	-734.18750	990.55334	337.10294	-300.02786	721.48193	-95.37987	-679.18213	791.93372	488.89020	-368.35400	857.35803	220.92244	-542.56958	863.48517	318.88687	-607.29535	866.88159	-5.72925	-303.27603	458.96677	191.13240	-713.06177	432.33890	174.59575	-241.50211	110.69001	277.19785	-274.36560	100.25179	382.60974	
379	3.780	-342.08142	1341.50964	326.55997	-499.98691	1492.20654	114.28050	-351.46927	1414.15479	131.59328	-482.79764	1395.84644	316.35959	-354.12674	1233.24512	12.94323	-628.89233	1249.13318	278.97925	-418.54733	1142.72009	257.56812	-561.88391	1250.43652	58.70611	-375.63647	915.64795	-78.85691	-728.38275	991.01251	341.99515	-292.18088	721.54407	-87.43734	-670.16278	791.92773	494.37823	-358.88666	857.49365	229.36296	-532.45721	864.35529	327.96158	-598.61847	866.22742	4.33017	-293.98306	457.02704	199.44174	-704.29352	431.99124	185.55090	-238.00424	105.24091	277.26471	-280.73123	76.64001	343.07709	
380	3.790	-334.87961	1342.14917	335.30563	-491.46960	1492.55811	121.12663	-342.57318	1414.36572	139.76270	-474.99146	1396.52893	323.39743	-344.74667	1233.39233	20.54845	-620.43475	1249.54688	285.51981	-408.98224	1145.88220	271.14267	-552.86945	1250.67004	65.81187	-367.27859	915.68622	-70.04207	-721.19031	991.24487	346.53918	-284.75363	721.27533	-80.01724	-660.83167	792.29657	499.03723	-349.08694	858.28619	239.46774	-522.20166	865.09473	337.49139	-589.09821	865.64514	13.79566	-286.07956	455.36212	206.98334	-694.70435	431.42581	197.67693	-237.09392	101.16309	281.30243	-265.39224	95.61502	391.23483	
381	3.800	-327.17886	1343.70044	343.84158	-482.78888	1493.10205	127.87193	-333.41916	1415.37256	148.36565	-467.91647	1397.60657	330.29916	-335.52042	1233.02014	28.87340	-612.21539	1250.47620	292.38361	-400.16537	1146.29443	275.68634	-543.33649	1250.56909	72.82772	-358.85419	915.52002	-60.45741	-713.03058	991.11115	350.31824	-276.74124	721.16705	-71.93405	-652.62817	792.77783	504.92560	-338.89642	858.99432	248.46036	-511.47717	865.96936	346.64978	-580.18500	865.32159	23.18182	-277.60934	454.57507	213.89330	-684.27307	430.50089	210.14790	-235.66666	98.56927	286.86273	-287.19254	95.17818	383.03912	
382	3.810	-319.89063	1346.17554	351.83530	-474.05719	1494.04260	134.69244	-325.09680	1416.50659	155.77571	-460.45157	1398.99182	337.39136	-325.99829	1233.38135	36.30420	-603.93359	1251.40137	299.49905	-390.41379	1148.20166	283.23148	-533.99274	1250.53333	80.20367	-350.66388	915.51666	-51.40993	-705.43524	990.91302	353.66019	-268.51511	721.38275	-64.00334	-645.25604	794.76245	508.72742	-328.05856	860.57800	256.94009	-501.26544	867.84064	356.46225	-570.61731	865.51160	32.53754	-268.96338	453.77896	220.95706	-674.27478	430.60196	223.67039	-233.58827	96.51451	290.96457	-262.15387	90.91762	399.59628	
383	3.820	-311.74017	1348.51758	359.85669	-465.19861	1494.92603	141.40771	-316.06146	1418.36877	163.14584	-452.88049	1400.52930	344.52551	-316.28220	1234.16077	44.31491	-596.04431	1253.07642	306.14120	-381.87125	1149.26917	289.48242	-524.61499	1251.96509	86.88049	-341.63226	915.62952	-42.56651	-698.97717	991.79749	356.70108	-260.02789	722.05817	-55.97929	-636.84192	795.22791	513.53326	-317.86169	861.51862	265.66071	-490.04547	867.80438	364.52875	-562.24780	866.46960	40.56158	-260.27124	454.87323	225.84291	-664.11346	430.54556	239.00620	-228.31021	94.52819	293.15207	-282.74966	91.75508	385.98248	
384	3.830	-304.64691	1351.06750	368.37808	-456.49411	1496.15479	148.25677	-306.80182	1419.59229	171.42496	-445.44232	1402.19348	351.75745	-306.93399	1235.55920	52.61217	-587.52930	1255.12427	313.89334	-371.92874	1150.58740	296.29761	-515.42206	1252.97705	94.72929	-332.08820	916.88440	-33.91384	-691.10211	992.12177	359.39389	-250.66531	723.33801	-46.99111	-629.89337	795.88202	517.70544	-307.32831	862.74127	273.28766	-479.12787	869.17004	373.95053	-553.49860	867.50226	48.88165	-252.98180	455.84137	230.85280	-652.63745	430.26721	254.42613	-226.41858	91.27100	293.31583	-281.17758	91.66456	386.43634	
